<?xml version="1.0" encoding="UTF-8"?>
<!DOCTYPE svg PUBLIC "-//W3C//DTD SVG 1.1//EN" "http://www.w3.org/Graphics/SVG/1.1/DTD/svg11.dtd">
<svg xmlns="http://www.w3.org/2000/svg" version="1.1" width="899px" height="885px" style="shape-rendering:geometricPrecision; text-rendering:geometricPrecision; image-rendering:optimizeQuality; fill-rule:evenodd; clip-rule:evenodd" xmlns:xlink="http://www.w3.org/1999/xlink">
<g><path style="opacity:1" fill="#fefefe" d="M -0.5,-0.5 C 299.167,-0.5 598.833,-0.5 898.5,-0.5C 898.5,294.5 898.5,589.5 898.5,884.5C 598.833,884.5 299.167,884.5 -0.5,884.5C -0.5,589.5 -0.5,294.5 -0.5,-0.5 Z"/></g>
<g><path style="opacity:1" fill="#161616" d="M 536.5,275.5 C 536.802,278.373 537.469,281.039 538.5,283.5C 539.152,291.255 540.819,298.755 543.5,306C 564.103,311.756 584.103,319.089 603.5,328C 600.596,333.644 598.096,339.477 596,345.5C 579.397,338.97 562.563,332.97 545.5,327.5C 545.5,328.5 545.5,329.5 545.5,330.5C 545.875,336.009 546.542,341.342 547.5,346.5C 553.308,417.913 549.975,488.913 537.5,559.5C 537.649,561.32 538.316,562.82 539.5,564C 594.468,574.377 649.801,577.377 705.5,573C 737.957,567.807 767.624,555.807 794.5,537C 818.082,514.462 818.416,491.462 795.5,468C 800.015,463.318 804.681,458.818 809.5,454.5C 841.737,487.224 841.403,519.724 808.5,552C 782.904,570.46 754.57,582.96 723.5,589.5C 708.419,591.691 693.419,593.357 678.5,594.5C 629.175,596.323 580.509,592.157 532.5,582C 508.337,677.481 470.837,767.315 420,851.5C 419.196,852.804 418.029,853.471 416.5,853.5C 407.023,848.258 398.023,842.258 389.5,835.5C 434.676,765.146 470.176,690.146 496,610.5C 499.767,598.704 502.6,586.704 504.5,574.5C 487.652,569.534 472.319,572.367 458.5,583C 446.129,594.373 433.462,605.373 420.5,616C 395.819,628.054 381.986,620.221 379,592.5C 377.797,565.342 376.297,538.342 374.5,511.5C 374.607,500.966 373.94,490.633 372.5,480.5C 372.705,463.849 370.539,447.515 366,431.5C 363.684,423.058 360.017,422.392 355,429.5C 352.667,433.167 350.333,436.833 348,440.5C 331.687,481.083 320.687,523.083 315,566.5C 311.723,578.72 307.057,590.387 301,601.5C 294.851,609.488 287.018,611.655 277.5,608C 273.688,604.518 270.188,600.685 267,596.5C 257.335,574.552 245.668,553.885 232,534.5C 228.5,531 225,527.5 221.5,524C 172.333,494.251 123.333,464.251 74.5,434C 60.046,422.547 46.546,410.047 34,396.5C 14.2873,371.235 12.2873,344.568 28,316.5C 57.9168,283.782 95.0835,263.949 139.5,257C 212.749,247.064 285.749,248.731 358.5,262C 413.099,270.884 466.766,283.384 519.5,299.5C 505.609,211.321 475.775,128.988 430,52.5C 428.813,50.9556 428.48,49.2889 429,47.5C 431.167,45.3333 433.333,43.1667 435.5,41C 437.769,40.2419 439.936,40.4086 442,41.5C 488.098,113.634 519.598,191.634 536.5,275.5 Z"/></g>
<g><path style="opacity:1" fill="#fefefe" d="M 287.5,272.5 C 292.916,274.117 298.583,274.784 304.5,274.5C 377.342,283.635 449.008,298.468 519.5,319C 520,319.5 520.5,320 521,320.5C 525.001,357.057 526.501,393.723 525.5,430.5C 524.091,439.631 523.424,448.965 523.5,458.5C 522.039,490.523 517.872,522.189 511,553.5C 510.044,554.894 508.711,555.561 507,555.5C 485.855,549 466.355,552.167 448.5,565C 435.387,577.049 421.72,588.382 407.5,599C 405.655,600.128 403.655,600.628 401.5,600.5C 399.491,593.633 397.991,586.633 397,579.5C 395.69,537.464 393.69,495.464 391,453.5C 388.628,441.346 385.628,429.346 382,417.5C 376.096,404.413 366.263,400.246 352.5,405C 345.333,409.5 339.5,415.333 335,422.5C 320.316,452.384 310.15,483.717 304.5,516.5C 302.777,518.78 302.111,521.447 302.5,524.5C 302.091,528.876 301.425,533.21 300.5,537.5C 298.777,539.78 298.111,542.447 298.5,545.5C 296.771,560.019 292.438,573.686 285.5,586.5C 276.671,570.176 267.837,553.842 259,537.5C 248.067,519.233 233.233,505.066 214.5,495C 164.482,468.004 116.482,438.004 70.5,405C 57.3251,393.502 46.8251,380.002 39,364.5C 35.9176,352.572 37.2509,341.238 43,330.5C 72.8455,297.828 110.012,279.328 154.5,275C 198.761,270.084 243.094,269.251 287.5,272.5 Z"/></g>
<g><path style="opacity:1" fill="#bfbfbf" d="M 287.5,272.5 C 293.36,272.717 299.027,273.383 304.5,274.5C 298.583,274.784 292.916,274.117 287.5,272.5 Z"/></g>
<g><path style="opacity:1" fill="#a4a4a4" d="M 536.5,275.5 C 538.223,277.78 538.889,280.447 538.5,283.5C 537.469,281.039 536.802,278.373 536.5,275.5 Z"/></g>
<g><path style="opacity:1" fill="#a3a3a3" d="M 545.5,330.5 C 547.26,335.553 547.927,340.886 547.5,346.5C 546.542,341.342 545.875,336.009 545.5,330.5 Z"/></g>
<g><path style="opacity:1" fill="#f09109" d="M 695.5,346.5 C 731.095,344.608 749.595,361.274 751,396.5C 744.8,426.674 726.3,439.841 695.5,436C 667.784,425.406 657.284,405.573 664,376.5C 670.169,361.828 680.669,351.828 695.5,346.5 Z"/></g>
<g><path style="opacity:1" fill="#c9c9c9" d="M 525.5,430.5 C 525.486,440.029 524.819,449.363 523.5,458.5C 523.424,448.965 524.091,439.631 525.5,430.5 Z"/></g>
<g><path style="opacity:1" fill="#bebebe" d="M 372.5,480.5 C 373.94,490.633 374.607,500.966 374.5,511.5C 372.991,501.372 372.325,491.038 372.5,480.5 Z"/></g>
<g><path style="opacity:1" fill="#a6a6a6" d="M 304.5,516.5 C 304.198,519.373 303.531,522.039 302.5,524.5C 302.111,521.447 302.777,518.78 304.5,516.5 Z"/></g>
<g><path style="opacity:1" fill="#a6a6a6" d="M 300.5,537.5 C 300.198,540.373 299.531,543.039 298.5,545.5C 298.111,542.447 298.777,539.78 300.5,537.5 Z"/></g>
<g><path style="opacity:1" fill="#b5b5b5" d="M 723.5,589.5 C 723.082,590.222 722.416,590.722 721.5,591C 707.265,593.4 692.932,594.567 678.5,594.5C 693.419,593.357 708.419,591.691 723.5,589.5 Z"/></g>
</svg>
