<?xml version="1.0" standalone="no"?>
<!DOCTYPE svg PUBLIC "-//W3C//DTD SVG 20010904//EN"
 "http://www.w3.org/TR/2001/REC-SVG-20010904/DTD/svg10.dtd">
<svg version="1.0" xmlns="http://www.w3.org/2000/svg"
 width="800.000000pt" height="800.000000pt" viewBox="0 0 800.000000 800.000000"
 preserveAspectRatio="xMidYMid meet">

<g transform="translate(0.000000,800.000000) scale(0.100000,-0.100000)"
fill="#000000" stroke="none">
<path d="M636 7219 c-113 -39 -205 -123 -260 -239 l-31 -65 -3 -2520 c-2
-2502 -2 -2520 18 -2553 11 -18 34 -41 52 -52 32 -20 53 -20 1238 -20 1185 0
1206 0 1238 20 100 61 94 203 -11 250 -41 19 -79 20 -1145 20 l-1102 0 2 1863
3 1862 2835 0 2835 0 3 -374 c2 -334 1 -373 -13 -367 -40 15 -210 28 -305 23
-260 -15 -448 -88 -540 -212 -56 -74 -78 -122 -91 -201 -15 -93 4 -185 65
-317 25 -54 46 -100 46 -102 0 -2 -201 -5 -447 -7 l-448 -3 -49 -25 c-66 -34
-129 -106 -150 -173 -15 -48 -17 -97 -14 -418 3 -348 4 -366 24 -410 26 -57
86 -118 138 -143 50 -23 143 -32 199 -18 24 7 89 33 143 59 143 68 205 64 266
-18 30 -41 59 -175 65 -299 6 -129 -18 -274 -57 -356 -24 -49 -77 -84 -129
-84 -17 0 -88 26 -158 57 -119 54 -133 58 -203 58 -121 0 -209 -55 -265 -165
-12 -24 -20 -66 -23 -132 l-5 -98 -126 0 c-102 0 -134 -4 -168 -19 -79 -37
-105 -138 -53 -211 35 -49 55 -55 205 -60 l140 -5 6 -150 c4 -128 8 -156 27
-192 28 -54 81 -106 135 -135 42 -23 47 -23 495 -26 441 -3 453 -3 447 -22 -3
-10 -24 -56 -46 -101 -67 -137 -82 -232 -53 -343 37 -146 150 -265 301 -317
99 -34 258 -59 372 -59 173 0 398 47 494 103 62 37 144 129 173 194 60 136 53
252 -26 423 -28 59 -50 109 -50 113 0 3 204 8 453 9 445 3 453 3 493 25 63 33
121 99 144 161 20 53 21 72 18 431 -3 346 -4 379 -22 411 -36 66 -75 106 -133
135 -49 25 -70 30 -133 30 -70 0 -84 -4 -203 -57 -70 -32 -141 -58 -158 -58
-49 0 -106 36 -130 81 -37 74 -61 229 -56 359 6 124 35 258 65 299 61 82 123
86 266 18 122 -58 171 -71 246 -64 110 10 200 79 241 187 17 46 19 81 19 408
0 315 -2 363 -17 406 -23 63 -87 134 -149 166 l-49 25 -447 3 c-247 2 -448 4
-448 6 0 1 23 53 50 115 95 212 84 369 -36 516 l-44 55 0 983 c0 940 -1 986
-19 1039 -40 116 -116 203 -227 259 l-69 34 -2795 2 c-2790 2 -2795 2 -2854
-18z m5619 -299 c55 -52 55 -49 55 -460 l0 -380 -2840 0 -2841 0 3 388 3 389
29 37 c15 21 38 41 50 46 12 5 1232 8 2768 7 l2746 -2 27 -25z m20 -2172 c189
-47 217 -121 119 -323 -43 -89 -48 -109 -52 -181 -5 -101 19 -164 85 -225 83
-76 65 -73 568 -79 l450 -5 3 -299 c1 -165 -1 -303 -5 -307 -5 -4 -43 10 -86
31 -142 69 -164 75 -267 75 -126 0 -208 -31 -304 -116 -173 -151 -232 -651
-115 -963 70 -188 230 -306 413 -306 80 0 154 21 268 74 42 20 81 36 87 36 8
0 11 -96 11 -305 l0 -305 -435 0 c-410 0 -437 -1 -488 -20 -71 -27 -129 -78
-161 -142 -21 -42 -26 -66 -26 -127 0 -69 4 -85 46 -176 65 -143 75 -176 62
-222 -14 -52 -42 -79 -105 -103 -144 -54 -353 -62 -513 -21 -129 33 -156 51
-179 120 -14 43 -4 82 55 206 24 52 48 116 53 142 25 135 -53 273 -183 322
-55 20 -72 21 -491 21 l-435 0 0 305 c0 209 3 305 11 305 6 0 45 -16 87 -36
170 -80 285 -94 405 -51 185 67 286 220 326 494 33 221 -9 515 -95 660 -83
141 -243 223 -409 210 -74 -6 -111 -18 -234 -78 -42 -20 -79 -34 -84 -30 -4 4
-6 142 -5 307 l3 299 450 5 c445 5 451 5 497 28 100 50 157 144 158 261 0 67
-4 83 -46 175 -65 142 -75 177 -62 222 15 57 55 89 137 114 142 42 337 45 486
8z"/>
<path d="M1002 6644 c-107 -55 -103 -208 6 -256 100 -45 202 21 202 130 0 78
-51 133 -129 139 -30 2 -58 -2 -79 -13z"/>
<path d="M1652 6640 c-98 -60 -94 -201 8 -252 47 -24 87 -22 134 5 51 29 79
79 73 134 -11 106 -127 167 -215 113z"/>
<path d="M2310 6641 c-105 -56 -95 -214 17 -257 56 -22 105 -12 150 30 31 28
37 40 41 89 3 45 0 62 -17 90 -39 63 -123 85 -191 48z"/>
<path d="M976 5459 c-20 -17 -40 -47 -46 -67 -13 -50 -14 -2173 0 -2223 5 -19
24 -48 41 -65 l30 -29 1075 -3 c1188 -3 1113 -6 1154 61 19 31 20 59 20 1147
0 1088 -1 1116 -20 1147 -40 67 32 63 -1149 63 l-1070 0 -35 -31z m1979 -1179
l0 -925 -850 -3 c-467 -1 -860 0 -872 3 l-23 5 0 919 c0 726 3 920 13 924 6 3
399 5 872 4 l860 -2 0 -925z"/>
<path d="M3613 5370 c-47 -28 -66 -72 -61 -137 6 -63 38 -104 97 -122 57 -17
1543 -14 1590 3 19 7 48 29 65 49 55 68 33 172 -44 212 -25 13 -140 15 -822
15 -769 0 -794 -1 -825 -20z"/>
<path d="M3623 4794 c-75 -37 -99 -152 -46 -215 51 -60 33 -59 718 -59 512 0
632 3 659 14 102 42 117 184 28 251 -26 19 -44 20 -677 22 -581 3 -653 1 -682
-13z"/>
<path d="M1004 2756 c-39 -17 -70 -60 -79 -109 -9 -48 23 -115 67 -142 32 -19
53 -20 588 -20 519 0 558 1 583 18 48 31 69 75 64 135 -3 46 -9 59 -41 90
l-36 37 -558 2 c-452 2 -563 0 -588 -11z"/>
<path d="M3423 2049 c-17 -5 -46 -26 -62 -46 -71 -86 -20 -216 89 -230 90 -12
163 48 164 137 2 99 -94 169 -191 139z"/>
</g>
</svg>
