<?xml version="1.0" encoding="UTF-8" standalone="no"?> <svg xmlns="http://www.w3.org/2000/svg" viewBox="0 0 64 64"><g id="_05-Video_Tutorial" data-name="05-Video Tutorial"><path id="path31347" d="M5,7H55a1.99566,1.99566,0,0,1,2,2V59a1.99566,1.99566,0,0,1-2,2H5a1.99566,1.99566,0,0,1-2-2V9A1.99567,1.99567,0,0,1,5,7Z" fill="#e7ebef"/><path id="path31349" d="M7,10.99991H53V45H7Z" fill="#68b1fc"/><path d="M55,6.99994H53.21588A2.97473,2.97473,0,0,1,54,8.998V59.00391A2.97143,2.97143,0,0,1,53.2168,61H55a1.99571,1.99571,0,0,0,2-2.00006V9A1.99571,1.99571,0,0,0,55,6.99994Z" fill="#d8dbe0"/><rect x="50.00739" y="10.99994" width="2.99261" height="34" fill="#539ffb"/><path id="path31351" d="M9,55.99991,14,52.99986,9,49.99981Z" fill="#fc6067"/><path id="path31359" d="M16,37H26a4.989,4.989,0,0,1,5,5v3H11v-3A4.989,4.989,0,0,1,16,37Z" fill="#fcb860"/><path id="path31361" d="M21,39a2.868,2.868,0,0,1-3-2V32h6v5a2.868,2.868,0,0,1-3,2Z" fill="#fdca99"/><path id="path32081" d="M33,2.9999H59a1.99566,1.99566,0,0,1,2,2v16a2.089,2.089,0,0,1-2,2H42l-7,6V23H33a1.99559,1.99559,0,0,1-2-2v-16A1.99566,1.99566,0,0,1,33,2.9999Z" fill="#fc6067"/><path id="path31363" d="M20,18.99992h2a4.989,4.989,0,0,1,5,5v3H15v-3a4.989,4.989,0,0,1,5-5Z" fill="#565d69"/><path d="M26,36.99994h-.69507a5.98624,5.98624,0,0,1,2.698,4.99817v3.00183H31v-3A4.98907,4.98907,0,0,0,26,36.99994Z" fill="#fcaa52"/><path d="M59,2.99988H57.21674A2.97634,2.97634,0,0,1,58,5V21a2.81268,2.81268,0,0,1-.8432,2H59a2.089,2.089,0,0,0,2-2.00006v-16A1.99571,1.99571,0,0,0,59,2.99988Z" fill="#fb4b5b"/><path d="M22,18.99994h-.72607A5.979,5.979,0,0,1,24,24v2.42l.58.58H27V23.99988A4.98906,4.98906,0,0,0,22,18.99994Z" fill="#4e5460"/><path id="path31365" d="M24,24.99989a12.67638,12.67638,0,0,1-6,2H16v2a5,5,0,0,0,10,0v-2Z" fill="#fdd5a6"/><path d="M22.999,25.57648v3.42358a5.97488,5.97488,0,0,1-2.62774,4.93683A4.83577,4.83577,0,0,0,26,28.99994v-2l-2-2.00006S23.61847,25.25238,22.999,25.57648Z" fill="#fdca99"/><path d="M14.51465,52.14258l-5-3A.99986.99986,0,0,0,8,50v6a1,1,0,0,0,1.51465.85742l5-3a1,1,0,0,0,0-1.71484ZM10,54.23389V51.76611L12.05664,53ZM52,53a.99974.99974,0,0,1-1,1H44a1,1,0,0,1,0-2h7A.99974.99974,0,0,1,52,53ZM41,51v4a1,1,0,0,1-2,0V54H18a1,1,0,0,1,0-2H39V51a1,1,0,0,1,2,0ZM59,2H33a3.00328,3.00328,0,0,0-3,3V6H5A3.00328,3.00328,0,0,0,2,9V59a3.00328,3.00328,0,0,0,3,3H55a3.00328,3.00328,0,0,0,3-3V24h1a1.0467,1.0467,0,0,0,.11719-.00684A3.05945,3.05945,0,0,0,62,21V5A3.00328,3.00328,0,0,0,59,2ZM34.582,29.90869a1.00021,1.00021,0,0,0,1.06836-.14941L42.37012,24H52V44H32V42a6.00657,6.00657,0,0,0-6-6H25V33.45953A5.97968,5.97968,0,0,0,27,29V28a.99974.99974,0,0,0,1-1V24a6.00657,6.00657,0,0,0-6-6H20a6.00657,6.00657,0,0,0-6,6v3a.99974.99974,0,0,0,1,1v1a5.97968,5.97968,0,0,0,2,4.45953V36H16a6.00657,6.00657,0,0,0-6,6v2H8V12H30v9a3.00328,3.00328,0,0,0,3,3h1v5A1.001,1.001,0,0,0,34.582,29.90869ZM26,25.58594l-1.293-1.293a.9989.9989,0,0,0-1.26172-.125A11.65431,11.65431,0,0,1,18,26H16V24a4.00427,4.00427,0,0,1,4-4h2a4.00427,4.00427,0,0,1,4,4ZM18,28a12.8496,12.8496,0,0,0,5.84473-1.7417L25,27.41394V29a4,4,0,0,1-8,0V28Zm3,7a5.96023,5.96023,0,0,0,2-.35V36.853A1.93369,1.93369,0,0,1,21,38a1.91051,1.91051,0,0,1-2-1.14648V34.65A5.96023,5.96023,0,0,0,21,35Zm-3.6601,3A3.97889,3.97889,0,0,0,21,40a3.97889,3.97889,0,0,0,3.6601-2H26a4.00427,4.00427,0,0,1,4,4v2H12V42a4.00427,4.00427,0,0,1,4-4ZM56,59a1.001,1.001,0,0,1-1,1H5a1.001,1.001,0,0,1-1-1V9A1.001,1.001,0,0,1,5,8H30v2H7a.99974.99974,0,0,0-1,1V45a.99974.99974,0,0,0,1,1H53a.99974.99974,0,0,0,1-1V24h2Zm4-38a1.10222,1.10222,0,0,1-1.06543,1H42a.99906.99906,0,0,0-.65039.24072L36,26.82568V23a.99974.99974,0,0,0-1-1H33a1.001,1.001,0,0,1-1-1V5a1.001,1.001,0,0,1,1-1H59a1.001,1.001,0,0,1,1,1ZM56,9a.99974.99974,0,0,1-1,1H44.69336l-2.75684,7.35107A1.00007,1.00007,0,0,1,41,18h-.01855a.99894.99894,0,0,1-.92969-.68359L38.2793,12H37a1,1,0,0,1,0-2h2a.9989.9989,0,0,1,.94824.68359l1.10742,3.32032,2.00782-5.355A1.0005,1.0005,0,0,1,44,8H55A.99974.99974,0,0,1,56,9Zm-3.293,4.707L51.41406,15l1.293,1.293A.99989.99989,0,1,1,51.293,17.707L50,16.41406l-1.293,1.293A.99989.99989,0,0,1,47.293,16.293L48.58594,15l-1.293-1.293A.99989.99989,0,0,1,48.707,12.293L50,13.58594l1.293-1.293A.99989.99989,0,1,1,52.707,13.707Z"/></g></svg>