<?xml version="1.0" standalone="no"?>
<!DOCTYPE svg PUBLIC "-//W3C//DTD SVG 20010904//EN"
 "http://www.w3.org/TR/2001/REC-SVG-20010904/DTD/svg10.dtd">
<svg version="1.0" xmlns="http://www.w3.org/2000/svg"
 width="800.000000pt" height="800.000000pt" viewBox="0 0 800.000000 800.000000"
 preserveAspectRatio="xMidYMid meet">

<g transform="translate(0.000000,800.000000) scale(0.100000,-0.100000)"
fill="#000000" stroke="none">
<path d="M3788 7590 c-241 -38 -493 -168 -676 -350 -185 -184 -305 -415 -350
-672 l-16 -98 -1011 -2 -1010 -3 -57 -28 c-83 -41 -153 -121 -178 -205 -20
-67 -20 -83 -18 -2737 l3 -2670 33 -67 c36 -73 87 -124 161 -160 l46 -23 3280
0 3280 0 51 27 c60 31 128 104 158 168 l21 45 0 2705 0 2705 -27 50 c-34 65
-98 129 -163 163 l-50 27 -1014 5 -1015 5 -13 80 c-80 490 -436 881 -922 1011
-83 22 -121 26 -276 29 -99 2 -206 0 -237 -5z m363 -225 c254 -44 483 -177
635 -368 78 -98 164 -268 196 -387 31 -116 33 -375 4 -490 -48 -190 -130 -334
-271 -476 -163 -165 -343 -261 -554 -295 -86 -14 -261 -13 -342 1 -409 72
-730 378 -825 785 -25 109 -30 283 -9 390 44 237 139 411 313 577 229 216 552
316 853 263z m-1391 -1207 c58 -395 350 -777 718 -938 194 -86 358 -116 577
-107 226 10 418 70 607 192 289 187 485 472 553 805 8 41 15 87 15 103 l0 27
991 0 991 0 34 -34 34 -34 0 -1781 0 -1781 -1814 0 -1815 0 -4 483 c-3 455 -5
486 -25 557 -102 359 -352 623 -694 730 -35 11 -71 20 -80 20 -25 0 -22 12 7
40 77 72 156 206 196 330 20 65 24 95 24 220 0 165 -12 222 -77 355 -104 215
-310 374 -548 425 -114 24 -191 25 -297 5 -175 -33 -299 -100 -428 -229 -78
-78 -98 -106 -143 -196 -56 -112 -92 -256 -92 -363 0 -74 33 -224 66 -299 36
-83 102 -184 148 -227 20 -19 36 -40 36 -45 0 -6 -28 -19 -63 -29 -205 -59
-377 -170 -511 -330 -98 -116 -167 -249 -208 -397 -22 -82 -23 -102 -28 -565
l-5 -480 -112 -3 -113 -3 0 1782 0 1781 34 34 34 34 990 0 990 0 12 -82z
m-287 -627 c79 -28 187 -101 242 -164 59 -68 110 -173 129 -269 20 -96 20
-118 1 -210 -36 -172 -153 -327 -305 -400 -97 -47 -177 -62 -293 -55 -153 9
-265 63 -375 181 -131 141 -180 333 -132 518 29 111 65 174 150 259 79 80 155
125 260 154 77 21 245 14 323 -14z m-450 -1338 c4 -7 -10 -176 -48 -573 -8
-91 -18 -212 -21 -270 l-6 -105 166 -165 c91 -91 169 -167 172 -170 2 -2 81
72 175 165 l171 170 -6 70 c-3 39 -15 174 -26 300 -20 225 -49 563 -50 578 0
14 147 6 240 -13 285 -60 502 -259 601 -550 22 -63 23 -80 26 -542 l4 -478
-170 0 -171 0 0 565 0 565 -110 0 -110 0 0 -565 0 -565 -570 0 -570 0 0 565 0
565 -115 0 -115 0 0 -565 0 -565 -170 0 -170 0 0 418 c0 324 3 436 15 502 32
185 103 317 237 446 112 108 223 167 383 204 81 18 230 26 238 13z m301 -45
c4 -29 20 -204 36 -388 16 -184 31 -356 34 -381 5 -45 3 -47 -50 -100 l-54
-54 -56 56 -55 56 16 174 c14 152 24 268 50 574 10 111 11 115 44 115 28 0 30
-3 35 -52z m4956 -2526 c0 -832 4 -784 -60 -817 -26 -13 -410 -15 -3230 -15
-2842 0 -3204 2 -3230 15 -62 32 -60 1 -60 825 l0 750 3290 0 3290 0 0 -758z"/>
<path d="M3426 6983 c-8 -8 -8 -1248 0 -1256 3 -3 290 136 636 309 351 176
627 319 622 324 -8 8 -1160 587 -1226 616 -14 7 -29 10 -32 7z m496 -490 c142
-71 257 -131 258 -135 0 -7 -512 -268 -525 -268 -8 0 -6 530 3 530 4 0 123
-57 264 -127z"/>
<path d="M930 6015 c-1 -3 -1 -53 -1 -112 l-1 -108 111 -3 111 -3 0 116 0 115
-110 0 c-60 0 -110 -2 -110 -5z"/>
<path d="M930 5555 c-1 -3 -1 -53 -1 -112 l-1 -108 109 0 108 0 3 113 3 112
-111 0 c-60 0 -110 -2 -110 -5z"/>
<path d="M930 5105 c-1 -3 -1 -53 -1 -112 l-1 -108 111 -3 111 -3 0 116 0 115
-110 0 c-60 0 -110 -2 -110 -5z"/>
<path d="M4798 4864 c-58 -18 -144 -82 -178 -133 -62 -92 -61 -73 -58 -896 l3
-750 27 -52 c40 -76 79 -115 150 -154 l63 -34 1005 0 1005 0 45 24 c70 37 98
61 134 115 67 99 66 82 66 876 0 775 0 773 -54 859 -32 50 -99 108 -154 134
l-47 22 -980 2 c-829 2 -987 0 -1027 -13z m1994 -243 l33 -29 3 -719 c3 -799
6 -763 -64 -797 -31 -14 -121 -16 -957 -16 -858 0 -924 1 -957 18 -19 9 -40
28 -47 42 -10 19 -13 189 -13 744 l0 718 34 34 34 34 951 0 951 0 32 -29z"/>
<path d="M5014 4417 c-2 -7 -3 -58 -2 -113 l3 -99 793 -3 792 -2 0 115 0 115
-790 0 c-646 0 -792 -2 -796 -13z"/>
<path d="M5012 3858 l3 -113 793 -3 792 -2 0 115 0 115 -795 0 -796 0 3 -112z"/>
<path d="M5014 3507 c-2 -7 -3 -58 -2 -113 l3 -99 568 -3 567 -2 0 115 0 115
-565 0 c-460 0 -567 -2 -571 -13z"/>
<path d="M6380 3405 l0 -115 110 0 110 0 0 115 0 115 -110 0 -110 0 0 -115z"/>
<path d="M2500 2139 c-77 -15 -187 -76 -260 -145 l-67 -64 -470 0 c-522 0
-534 -1 -629 -66 -54 -36 -78 -64 -115 -134 -21 -39 -24 -59 -24 -145 0 -89 3
-106 27 -150 30 -58 96 -123 160 -157 43 -23 43 -23 548 -28 l505 -5 60 -60
c227 -226 590 -217 807 20 l37 40 1868 5 1868 5 50 27 c92 48 152 123 181 222
22 78 14 151 -26 232 -36 73 -91 126 -169 163 l-56 26 -1855 3 -1855 2 -66 63
c-74 71 -184 131 -268 147 -63 12 -187 11 -251 -1z m266 -243 c182 -83 253
-286 163 -463 -36 -71 -81 -115 -156 -153 -67 -35 -214 -36 -285 -3 -61 28
-142 109 -170 170 -32 70 -32 220 0 281 92 174 281 244 448 168z m-702 -308
l-1 -113 -401 -3 c-446 -3 -454 -1 -492 60 -24 40 -25 57 -4 101 32 68 23 66
484 67 l415 0 -1 -112z m4706 97 c55 -29 75 -101 43 -156 -37 -63 80 -59
-1847 -59 -965 0 -1761 3 -1769 6 -12 4 -13 13 -5 47 5 23 7 72 3 110 l-6 67
1776 0 c1568 0 1779 -2 1805 -15z"/>
<path d="M2555 1667 c-30 -30 -35 -42 -35 -80 0 -85 70 -133 149 -101 111 44
88 198 -32 211 -43 5 -49 3 -82 -30z"/>
</g>
</svg>
