<?xml version="1.0" encoding="utf-8"?>
<!-- Generator: Adobe Illustrator 26.0.2, SVG Export Plug-In . SVG Version: 6.00 Build 0)  -->
<svg version="1.1" id="Layer_3" xmlns="http://www.w3.org/2000/svg" xmlns:xlink="http://www.w3.org/1999/xlink" x="0px" y="0px"
	 viewBox="0 0 64 64" style="enable-background:new 0 0 64 64;" xml:space="preserve">
<g>
	<path d="M58,21h-3v-5c0-0.553-0.447-1-1-1h-7.051C46.431,7.195,39.934,1,32,1S17.569,7.195,17.051,15H10c-0.553,0-1,0.447-1,1v5H6
		c-0.553,0-1,0.447-1,1v40c0,0.553,0.447,1,1,1h52c0.553,0,1-0.447,1-1V22C59,21.447,58.553,21,58,21z M37,30.133
		c4.29-1.521,7.633-4.924,9.134-9.133H49v20H37V30.133z M32,3c7.168,0,13,5.832,13,13c0,6.128-4.349,11.48-10.34,12.726
		c-0.258,0.054-0.483,0.206-0.629,0.425L32,32.197l-2.031-3.047c-0.146-0.219-0.371-0.371-0.629-0.425C23.349,27.48,19,22.128,19,16
		C19,8.832,24.832,3,32,3z M27,30.133V41H15V21h2.866C19.367,25.208,22.71,28.611,27,30.133z M11,17h6.043
		c0.046,0.679,0.14,1.345,0.275,2H14c-0.553,0-1,0.447-1,1v22c0,0.553,0.447,1,1,1h14c0.553,0,1-0.447,1-1V31.303l2.168,3.252
		C31.354,34.833,31.666,35,32,35s0.646-0.167,0.832-0.445L35,31.303V42c0,0.553,0.447,1,1,1h14c0.553,0,1-0.447,1-1V20
		c0-0.553-0.447-1-1-1h-3.318c0.135-0.655,0.229-1.321,0.275-2H53v40H37c-2.206,0-4-1.794-4-4V37h-2v16c0,2.206-1.794,4-4,4H11V17z
		 M57,61H7V23h2v35c0,0.553,0.447,1,1,1h17c2.086,0,3.924-1.071,5-2.69c1.076,1.62,2.914,2.69,5,2.69h17c0.553,0,1-0.447,1-1V23h2
		V61z"/>
	<rect x="13" y="45" width="16" height="2"/>
	<rect x="13" y="49" width="12" height="2"/>
	<rect x="27" y="49" width="2" height="2"/>
	<rect x="35" y="45" width="16" height="2"/>
	<rect x="35" y="49" width="12" height="2"/>
	<rect x="49" y="49" width="2" height="2"/>
	<path d="M32,18c1.654,0,3-1.346,3-3V9c0-1.654-1.346-3-3-3s-3,1.346-3,3v6C29,16.654,30.346,18,32,18z M31,9c0-0.552,0.448-1,1-1
		s1,0.448,1,1v6c0,0.552-0.448,1-1,1s-1-0.448-1-1V9z"/>
	<path d="M32,26c1.654,0,3-1.346,3-3s-1.346-3-3-3s-3,1.346-3,3S30.346,26,32,26z M32,22c0.552,0,1,0.448,1,1s-0.448,1-1,1
		s-1-0.448-1-1S31.448,22,32,22z"/>
</g>
</svg>
