<?xml version="1.0" encoding="UTF-8" standalone="no"?>
<!-- Created with Inkscape (http://www.inkscape.org/) -->

<svg
   version="1.1"
   id="svg1"
   width="62.0177"
   height="59.97876"
   viewBox="0 0 62.0177 59.97876"
   sodipodi:docname="logo_1.svg"
   inkscape:version="1.4.3 (0d15f75, 2025-12-25)"
   xmlns:inkscape="http://www.inkscape.org/namespaces/inkscape"
   xmlns:sodipodi="http://sodipodi.sourceforge.net/DTD/sodipodi-0.dtd"
   xmlns="http://www.w3.org/2000/svg"
   xmlns:svg="http://www.w3.org/2000/svg">
  <defs
     id="defs1" />
  <sodipodi:namedview
     id="namedview1"
     pagecolor="#ffffff"
     bordercolor="#000000"
     borderopacity="0.25"
     inkscape:showpageshadow="2"
     inkscape:pageopacity="0.0"
     inkscape:pagecheckerboard="0"
     inkscape:deskcolor="#d1d1d1"
     inkscape:zoom="12.887896"
     inkscape:cx="30.998078"
     inkscape:cy="29.98938"
     inkscape:window-width="2400"
     inkscape:window-height="1261"
     inkscape:window-x="-9"
     inkscape:window-y="-9"
     inkscape:window-maximized="1"
     inkscape:current-layer="g1" />
  <g
     inkscape:groupmode="layer"
     inkscape:label="Image"
     id="g1">
    <path
       style="fill:#000000"
       d="M 0,29.98938 V 0 H 31.00885 62.0177 V 29.98938 59.97876 H 31.00885 0 Z m 30.206239,26.973451 c 1.611173,-2.86156 2.236144,-4.088388 3.319423,-6.516078 1.170624,-2.623436 2.768715,-7.101103 3.257085,-9.125977 0.217719,-0.902708 0.362901,-1.21775 0.531385,-1.153097 0.127501,0.04893 1.131237,0.222502 2.230526,0.385722 1.472361,0.218613 3.02784,0.294606 5.90667,0.288571 3.472806,-0.0073 4.059325,-0.04949 5.267257,-0.379083 4.14463,-1.130884 6.933907,-3.643122 6.655433,-5.994397 -0.0991,-0.83675 -0.578074,-1.848197 -1.279255,-2.701402 l -0.343865,-0.418418 -0.475192,0.469092 c -0.404775,0.399579 -0.443374,0.512881 -0.260479,0.764601 0.118093,0.162531 0.413439,0.705505 0.656325,1.206609 0.393265,0.811354 0.420414,0.981854 0.24798,1.557384 -0.258974,0.864381 -1.486872,2.044732 -2.788368,2.680398 -2.65044,1.294506 -4.849493,1.661876 -8.954172,1.495867 -2.554651,-0.10332 -6.476797,-0.576412 -6.709716,-0.809331 -0.05228,-0.05228 0.0212,-0.774957 0.163297,-1.605945 0.604768,-3.536762 0.783125,-8.707582 0.426767,-12.37261 -0.09019,-0.927576 -0.139595,-1.710889 -0.109789,-1.740695 0.02981,-0.02981 0.731595,0.174783 1.559531,0.454643 0.827936,0.27986 1.596409,0.508837 1.707718,0.508837 0.245113,0 0.678227,-0.980577 0.508985,-1.152351 -0.0661,-0.06709 -1.008722,-0.428843 -2.09471,-0.803892 L 37.65455,21.319373 37.368997,19.707474 C 36.712377,16.00097 35.311625,11.841169 33.483762,8.1695223 32.57241,6.3388812 31.134111,3.7643222 30.835394,3.4289351 30.732821,3.3137708 30.074337,3.8306375 30.074337,4.0263148 c 0,0.1135851 0.234406,0.6040715 0.520902,1.0899698 2.198709,3.7290207 4.277773,9.2408844 5.168854,13.7032934 0.438032,2.193603 0.52731,2.124265 -1.866747,1.449803 -2.301497,-0.648386 -7.645448,-1.747351 -10.704425,-2.201328 -2.940382,-0.436376 -10.411926,-0.44079 -12.541507,-0.0074 -2.8885889,0.587844 -5.1938526,1.660502 -6.802885,3.165438 -2.1153817,1.978526 -2.1790834,4.324316 -0.1798643,6.62343 1.3554661,1.558794 3.4513873,3.008659 9.4667153,6.548654 1.383751,0.814331 2.77077,1.704372 3.082265,1.977868 0.569694,0.500198 1.52387,1.989839 2.384783,3.723078 0.937096,1.886617 1.858403,2.353998 2.690623,1.364961 0.561531,-0.667342 1.041595,-2.159877 1.554253,-4.832228 0.677193,-3.530027 1.917168,-6.979277 2.586051,-7.193639 0.486527,-0.155921 0.847804,2.57668 1.051453,7.952917 0.148253,3.913775 0.212541,4.265576 0.921795,5.044272 0.684617,0.751647 1.520542,0.440289 3.602247,-1.341733 1.72149,-1.473664 2.277187,-1.745953 3.282096,-1.608215 0.422908,0.05797 0.802875,0.139344 0.844369,0.180838 0.137939,0.137939 -1.16979,4.224782 -2.041419,6.37973 -1.065223,2.633575 -3.163201,6.85513 -4.659623,9.376102 -0.622094,1.048021 -1.061909,1.930082 -0.977367,1.960137 0.08454,0.03005 0.497785,0.277584 0.918316,0.550066 0.420531,0.272481 0.816201,0.500329 0.879266,0.506328 0.06307,0.006 0.491353,-0.65812 0.951751,-1.475819 z m -2.0845,-15.804882 c -0.06465,-0.161828 -0.219483,-2.396888 -0.344079,-4.966799 -0.249182,-5.139595 -0.516043,-6.818227 -1.216214,-7.650333 -0.816813,-0.970728 -2.096159,-0.511019 -3.017188,1.08417 -0.589583,1.021137 -1.750081,4.806434 -2.1409,6.98316 -0.405277,2.257252 -0.795049,3.660879 -1.016587,3.660879 -0.08967,0 -0.440444,-0.554337 -0.779506,-1.231859 C 18.736115,37.296416 17.59709,35.624445 16.9494,35.135697 16.645283,34.90621 14.523186,33.602941 12.233629,32.239542 7.6781309,29.52681 6.6886237,28.844655 5.2267075,27.409053 4.1759072,26.377167 3.5681417,25.330305 3.5681417,24.552212 c 0,-0.809593 0.6650999,-1.934582 1.5636444,-2.644841 3.0256304,-2.391623 7.9062219,-3.269776 15.0205309,-2.702608 4.180184,0.333253 7.917626,1.018033 13.616299,2.494797 l 2.419943,0.627109 0.127579,0.603037 c 0.07017,0.33167 0.126215,2.743922 0.124546,5.360559 -0.0029,4.57469 -0.17091,6.698867 -0.732354,9.260177 l -0.130357,0.59469 -1.205546,-0.05798 c -1.561601,-0.0751 -2.241871,0.226614 -4.128179,1.830951 -1.787386,1.520204 -1.968296,1.62588 -2.122509,1.239845 z M 49.910744,29.9829 c 0.842567,-0.352047 1.221486,-0.714316 1.592708,-1.522724 0.917993,-1.999105 -0.505502,-4.202042 -2.715279,-4.202042 -1.767836,0 -2.912915,1.205951 -2.911431,3.066201 0.0017,2.079685 2.103779,3.465063 4.034002,2.658565 z"
       id="path1" />
  </g>
</svg>
